<?xml version="1.0" encoding="utf-8"?>
<!-- Generator: Adobe Illustrator 19.0.0, SVG Export Plug-In . SVG Version: 6.00 Build 0)  -->
<svg version="1.1" id="Capa_1" xmlns="http://www.w3.org/2000/svg" xmlns:xlink="http://www.w3.org/1999/xlink" x="0px" y="0px"
	 viewBox="0 0 471.7 394.6" style="enable-background:new 0 0 471.7 394.6;" xml:space="preserve">
<style type="text/css">
	.st0{fill:#FFFFFF;}
</style>
<g id="XMLID_132_">
	<g id="XMLID_78_">
		<path id="XMLID_169_" class="st0" d="M327.2,357.1h-120c-2.4,0-4.4-2.1-4.4-4.5s2-4.5,4.4-4.5h116v-174h-242v17.5
			c0,2.4-2.1,4.4-4.5,4.4c-2.4,0-4.5-2-4.5-4.4v-21.8c0-2.4,1.7-4.6,4.2-4.6h250.9c2.4,0,5,2.2,5,4.6V353
			C332.2,355.4,329.7,357.1,327.2,357.1z"/>
	</g>
	<g id="XMLID_77_">
		<path id="XMLID_168_" class="st0" d="M124.4,357.1H74.2c-2.4,0-5-1.7-5-4.1v-48c0-2.4,2.1-4.4,4.5-4.4c2.4,0,4.5,2,4.5,4.4v43.1
			h46.1c2.4,0,4.4,2.1,4.4,4.5S126.8,357.1,124.4,357.1z"/>
	</g>
	<g id="XMLID_76_">
		<path id="XMLID_167_" class="st0" d="M170.2,285.1H63.3c-2.4,0-4.4-2.1-4.4-4.5s2-4.5,4.4-4.5h106.9c2.4,0,4.4,2.1,4.4,4.5
			S172.6,285.1,170.2,285.1z"/>
	</g>
	<g id="XMLID_75_">
		<path id="XMLID_166_" class="st0" d="M205.1,257.1H8.7c-2.4,0-4.4-2.1-4.4-4.5s2-4.5,4.4-4.5h196.3c2.4,0,4.4,2.1,4.4,4.5
			S207.5,257.1,205.1,257.1z"/>
	</g>
	<g id="XMLID_74_">
		<path id="XMLID_165_" class="st0" d="M261.8,228.1H41.5c-2.4,0-4.4-1.6-4.4-4s2-4,4.4-4h220.3c2.4,0,4.4,1.6,4.4,4
			S264.2,228.1,261.8,228.1z"/>
	</g>
	<g id="XMLID_73_">
		<path id="XMLID_164_" class="st0" d="M464.7,360.1h-21.8c-2.4,0-4.4-2.1-4.4-4.5s2-4.5,4.4-4.5h17.3v-78.9l-37.6-83.1h-93.2
			c-2.4,0-4.4-1.6-4.4-4s2-4,4.4-4h96c1.7,0,3.3,0.8,4,2.3l39.4,86.2c0.3,0.6,0.5,1.1,0.5,1.7v83.9
			C469.2,357.6,467.1,360.1,464.7,360.1z"/>
	</g>
	<g id="XMLID_71_">
		<path id="XMLID_163_" class="st0" d="M357.8,357.1h-28.4c-3.6,0-6.5-2.9-6.5-6.5s2.9-6.5,6.5-6.5h28.4c3.6,0,6.5,2.9,6.5,6.5
			S361.4,357.1,357.8,357.1z"/>
	</g>
	<g id="XMLID_44_">
		<path id="XMLID_162_" class="st0" d="M464.7,279.1h-99.3c-1.8,0-3.2-1.7-3.2-3.6v-63.3c0-1.8,1.4-3.2,3.2-3.2h73.1
			c1.8,0,3.3,1.2,3.3,3s-1.5,3-3.3,3h-70.3v57h96.5c1.8,0,3.3,1.7,3.3,3.5S466.5,279.1,464.7,279.1z"/>
	</g>
	<g id="XMLID_43_">
		<path id="XMLID_161_" class="st0" d="M462.5,300.1h-19.6c-2.4,0-4.4-1.6-4.4-4s2-4,4.4-4h19.6c2.4,0,4.4,1.6,4.4,4
			S464.9,300.1,462.5,300.1z"/>
	</g>
	<g id="XMLID_42_">
		<path id="XMLID_158_" class="st0" d="M401.4,392.2c-23.2,0-42-18.8-42-42c0-23.2,18.8-42,42-42c23.2,0,42,18.8,42,42
			C443.4,373.4,424.6,392.2,401.4,392.2z M401.4,314.7c-19.5,0-35.5,15.9-35.5,35.5c0,19.5,15.9,35.5,35.5,35.5
			c19.5,0,35.5-15.9,35.5-35.5C436.9,330.7,421,314.7,401.4,314.7z"/>
	</g>
	<g id="XMLID_41_">
		<path id="XMLID_155_" class="st0" d="M401.4,369.5c-10.6,0-19.3-8.6-19.3-19.3c0-10.6,8.6-19.3,19.3-19.3
			c10.6,0,19.3,8.6,19.3,19.3C420.7,360.8,412,369.5,401.4,369.5z M401.4,335.3c-8.2,0-14.9,6.7-14.9,14.9c0,8.2,6.7,14.9,14.9,14.9
			c8.2,0,14.9-6.7,14.9-14.9C416.3,342,409.6,335.3,401.4,335.3z"/>
	</g>
	<g id="XMLID_40_">
		<path id="XMLID_152_" class="st0" d="M165.8,392.2c-23.2,0-42-18.8-42-42c0-23.2,18.8-42,42-42s42,18.8,42,42
			C207.8,373.4,189,392.2,165.8,392.2z M165.8,314.7c-19.5,0-35.5,15.9-35.5,35.5c0,19.5,15.9,35.5,35.5,35.5s35.5-15.9,35.5-35.5
			C201.3,330.7,185.4,314.7,165.8,314.7z"/>
	</g>
	<g id="XMLID_39_">
		<path id="XMLID_149_" class="st0" d="M165.8,369.5c-10.6,0-19.3-8.6-19.3-19.3c0-10.6,8.6-19.3,19.3-19.3s19.3,8.6,19.3,19.3
			C185.1,360.8,176.4,369.5,165.8,369.5z M165.8,335.3c-8.2,0-14.9,6.7-14.9,14.9c0,8.2,6.7,14.9,14.9,14.9s14.9-6.7,14.9-14.9
			C180.7,342,174,335.3,165.8,335.3z"/>
	</g>
	<g id="XMLID_38_">
		<path id="XMLID_146_" class="st0" d="M242.2,134.2c-35.9,0-65.1-29.2-65.1-65.1s29.2-65.1,65.1-65.1s65.1,29.2,65.1,65.1
			S278,134.2,242.2,134.2z M242.2,10.6c-32.3,0-58.5,26.3-58.5,58.5s26.3,58.5,58.5,58.5s58.5-26.3,58.5-58.5S274.4,10.6,242.2,10.6
			z"/>
	</g>
	<g id="XMLID_37_">
		<path id="XMLID_145_" class="st0" d="M266.2,74.1h-25.1c-1.8,0-2.9-1.8-2.9-3.6V38.9c0-1.8,1.2-3.3,3-3.3c1.8,0,3,1.5,3,3.3v28.3
			h22c1.8,0,3.3,1.7,3.3,3.5S268,74.1,266.2,74.1z"/>
	</g>
	<g id="XMLID_36_">
		<path id="XMLID_144_" class="st0" d="M242.2,25.8c-1.2,0-2-1-2-2.2v-2.2c0-1.2,0.8-2.2,2-2.2c1.2,0,2,1,2,2.2v2.2
			C244.2,24.8,243.4,25.8,242.2,25.8z"/>
	</g>
	<g id="XMLID_35_">
		<path id="XMLID_143_" class="st0" d="M219.8,33.3c-0.8,0-1.5-0.4-1.9-1.1l-2-3.5c-0.6-1-0.2-2.4,0.8-3c1-0.6,2.4-0.2,3,0.8l2,3.5
			c0.6,1,0.2,2.4-0.8,3C220.5,33.2,220.2,33.3,219.8,33.3z"/>
	</g>
	<g id="XMLID_34_">
		<path id="XMLID_142_" class="st0" d="M203.4,49.7c-0.4,0-0.7-0.1-1.1-0.3l-3.5-2c-1-0.6-1.4-1.9-0.8-3c0.6-1,1.9-1.4,3-0.8l3.5,2
			c1,0.6,1.4,1.9,0.8,3C204.9,49.3,204.2,49.7,203.4,49.7z"/>
	</g>
	<g id="XMLID_33_">
		<path id="XMLID_141_" class="st0" d="M196.3,71.1h-2.2c-1.2,0-2.2-0.8-2.2-2s1-2,2.2-2h2.2c1.2,0,2.2,0.8,2.2,2
			S197.6,71.1,196.3,71.1z"/>
	</g>
	<g id="XMLID_32_">
		<path id="XMLID_140_" class="st0" d="M199.9,96.5c-0.8,0-1.5-0.4-1.9-1.1c-0.6-1-0.2-2.4,0.8-3l3.5-2c1-0.6,2.4-0.2,3,0.8
			c0.6,1,0.2,2.4-0.8,3l-3.5,2C200.6,96.4,200.3,96.5,199.9,96.5z"/>
	</g>
	<g id="XMLID_31_">
		<path id="XMLID_139_" class="st0" d="M217.8,114.3c-0.4,0-0.7-0.1-1.1-0.3c-1-0.6-1.4-1.9-0.8-3l2-3.5c0.6-1,1.9-1.4,3-0.8
			c1,0.6,1.4,1.9,0.8,3l-2,3.5C219.2,113.9,218.5,114.3,217.8,114.3z"/>
	</g>
	<g id="XMLID_30_">
		<path id="XMLID_138_" class="st0" d="M242.2,119.6c-1.2,0-2-1-2-2.2v-2.2c0-1.2,0.8-2.2,2-2.2c1.2,0,2,1,2,2.2v2.2
			C244.2,118.6,243.4,119.6,242.2,119.6z"/>
	</g>
	<g id="XMLID_29_">
		<path id="XMLID_137_" class="st0" d="M266.6,114.3c-0.8,0-1.5-0.4-1.9-1.1l-2-3.5c-0.6-1-0.2-2.4,0.8-3c1-0.6,2.4-0.2,3,0.8l2,3.5
			c0.6,1,0.2,2.4-0.8,3C267.3,114.2,266.9,114.3,266.6,114.3z"/>
	</g>
	<g id="XMLID_28_">
		<path id="XMLID_136_" class="st0" d="M284.4,96.5c-0.4,0-0.7-0.1-1.1-0.3l-3.5-2c-1-0.6-1.4-1.9-0.8-3c0.6-1,1.9-1.4,3-0.8l3.5,2
			c1,0.6,1.4,1.9,0.8,3C285.9,96.1,285.2,96.5,284.4,96.5z"/>
	</g>
	<g id="XMLID_21_">
		<path id="XMLID_135_" class="st0" d="M290.2,71.1H288c-1.2,0-2.2-0.8-2.2-2s1-2,2.2-2h2.2c1.2,0,2.2,0.8,2.2,2
			S291.4,71.1,290.2,71.1z"/>
	</g>
	<g id="XMLID_20_">
		<path id="XMLID_134_" class="st0" d="M280.9,49.7c-0.8,0-1.5-0.4-1.9-1.1c-0.6-1-0.2-2.4,0.8-3l3.5-2c1-0.6,2.4-0.2,3,0.8
			c0.6,1,0.2,2.4-0.8,3l-3.5,2C281.7,49.6,281.3,49.7,280.9,49.7z"/>
	</g>
	<g id="XMLID_19_">
		<path id="XMLID_133_" class="st0" d="M264.5,33.3c-0.4,0-0.7-0.1-1.1-0.3c-1-0.6-1.4-1.9-0.8-3l2-3.5c0.6-1,1.9-1.4,3-0.8
			c1,0.6,1.4,1.9,0.8,3l-2,3.5C266,32.9,265.3,33.3,264.5,33.3z"/>
	</g>
</g>
</svg>
