<?xml version="1.0" encoding="utf-8"?>
<!-- Generator: Adobe Illustrator 19.0.0, SVG Export Plug-In . SVG Version: 6.00 Build 0)  -->
<svg version="1.1" id="Capa_1" xmlns="http://www.w3.org/2000/svg" xmlns:xlink="http://www.w3.org/1999/xlink" x="0px" y="0px"
	 viewBox="0 0 129.8 18.2" style="enable-background:new 0 0 129.8 18.2;" xml:space="preserve">
<style type="text/css">
	.st0{fill:#ED4956;}
	.st1{fill:#3A3A3A;}
</style>
<g id="XMLID_55_">
	<path id="XMLID_61_" class="st0" d="M15.5,9.3c-1.7,2.6-4.9,4.8-6.8,6.5c-0.1,0.1-0.1,0.1-0.2,0C5.4,12.9-2,8.6,1.6,3.4
		C3.5,0.7,7.5,2,8.5,3.8c0.1,0.1,0.2,0.1,0.2,0c1-1.8,5-3.1,6.9-0.4C17.2,5.5,16.8,7.5,15.5,9.3z"/>
	<g id="XMLID_60_">
		<path id="XMLID_69_" class="st1" d="M43.3,18L43,18l-3.3-1c-1.2,0.6-2.4,0.7-3.4,0.8c-2.5,0.1-4.9-0.8-6.7-2.5
			c-1.7-1.6-2.6-3.8-2.6-6.1c0-2.4,1-4.7,2.7-6.3c1.7-1.6,3.9-2.4,6.3-2.3c4.4,0.3,7.9,4,7.9,8.6c0,1.3,0,2.8-0.7,4l0.7,4.5L43.3,18
			z M39.5,15.8l0.3,0.1l2.7,0.8L42,12.9l0.1-0.2c0.6-0.9,0.6-2.3,0.6-3.5c0-4-3-7.3-6.9-7.5c-2-0.1-4,0.6-5.5,2C28.8,5,28,7,28,9.1
			c0,2,0.8,3.9,2.3,5.3c1.6,1.5,3.7,2.3,5.9,2.2c1.4-0.1,2.3-0.3,3.1-0.7L39.5,15.8z"/>
	</g>
	<g id="XMLID_57_">
		<g id="XMLID_59_">
			<path id="XMLID_66_" class="st1" d="M61.8,17.5l-0.4,0c-0.2,0-0.4-0.2-0.5-0.5l-1.6-7.7l-6.5-5.4l0.1-0.4C53,3.2,53.2,3,53.4,3
				h16.4l0.2,0.3c0.1,0.2,0.1,0.4,0,0.6L61.8,17.5z M54.7,4.1l5.5,4.6l0.1,0.2l1.4,6.7l7-11.5H54.7z"/>
		</g>
		<g id="XMLID_58_">
			
				<rect id="XMLID_65_" x="64.2" y="0.5" transform="matrix(0.4819 0.8762 -0.8762 0.4819 38.9136 -53.528)" class="st1" width="1.1" height="11.2"/>
		</g>
	</g>
	<g id="XMLID_56_">
		<path id="XMLID_62_" class="st1" d="M117.1,16.3l-0.4-0.1c-0.2-0.1-0.4-0.3-0.4-0.6V0.2l0.6-0.1h12.5l0.1,0.6V16l-0.4,0.2
			c-0.2,0.1-0.5,0-0.7-0.2L123,9.9L117.1,16.3z M117.3,1.2v13.2l5.4-5.9l0.3,0l0.2,0l0.2,0.2l5,5.7V1.2H117.3z"/>
	</g>
</g>
</svg>
