<?xml version="1.0" encoding="utf-8"?>
<!-- Generator: Adobe Illustrator 19.0.0, SVG Export Plug-In . SVG Version: 6.00 Build 0)  -->
<svg version="1.1" id="Capa_1" xmlns="http://www.w3.org/2000/svg" xmlns:xlink="http://www.w3.org/1999/xlink" x="0px" y="0px"
	 viewBox="0 0 50 50" style="enable-background:new 0 0 50 50;" xml:space="preserve">
<style type="text/css">
	.st0{fill:#FFFFFF;}
</style>
<path id="XMLID_33_" class="st0" d="M33.7,49.1c-2.8,0-5.4-0.7-7.9-1.9c-3.4-1.6-6.5-3.8-9.2-6.4C11.5,35.9,7,30.6,4.3,24
	c-2-4.9-2.5-9.9-0.5-14.9c0.8-2.1,2.1-3.9,3.9-5.4c0.8-0.6,1.5-1.3,2.3-2c1.5-1.2,3-1.1,4.6,0c0,0,0.1,0.1,0.1,0.1
	c2.4,2.6,4.4,5.4,5.4,8.8c0.6,1.9,0,3.6-1.6,4.9c-0.9,0.7-1.8,1.4-2.7,2.1c-1.7,1.4-2.2,2.7-1.6,4.9c0.3,1,0.8,1.9,1.3,2.8
	c2.2,3.6,5,6.8,8.4,9.4c0.2,0.1,0.4,0.3,0.6,0.4c2.9,2,4.8,1.8,7.2-0.7c0.4-0.4,0.8-0.9,1.3-1.3c1.8-1.8,4-2.2,6.2-1
	c2.8,1.6,5.2,3.7,7.2,6.1c1.4,1.7,1.2,3.4-0.4,4.9c-1.7,1.5-3.2,3.3-5.3,4.3C38.6,48.7,36.2,49.1,33.7,49.1z"/>
</svg>
