<?xml version="1.0" encoding="utf-8"?>
<!-- Generator: Adobe Illustrator 19.0.0, SVG Export Plug-In . SVG Version: 6.00 Build 0)  -->
<svg version="1.1" id="Capa_1" xmlns="http://www.w3.org/2000/svg" xmlns:xlink="http://www.w3.org/1999/xlink" x="0px" y="0px"
	 viewBox="0 0 44.4 44.4" style="enable-background:new 0 0 44.4 44.4;" xml:space="preserve">
<style type="text/css">
	.st0{fill:#2576FF;}
</style>
<g id="XMLID_1_">
	<path id="XMLID_49_" class="st0" d="M22.2,10.8c-6.3,0-11.4,5.1-11.4,11.4s5.1,11.4,11.4,11.4s11.4-5.1,11.4-11.4
		S28.5,10.8,22.2,10.8z M22.2,29.6c-4.1,0-7.4-3.3-7.4-7.4s3.3-7.4,7.4-7.4s7.4,3.3,7.4,7.4S26.3,29.6,22.2,29.6z"/>
	<path id="XMLID_27_" class="st0" d="M36.7,10.4c0,1.5-1.2,2.7-2.7,2.7c-1.5,0-2.7-1.2-2.7-2.7c0-1.5,1.2-2.7,2.7-2.7
		C35.5,7.7,36.7,8.9,36.7,10.4z"/>
	<path id="XMLID_43_" class="st0" d="M44.3,13c-0.1-2.4-0.5-4-1-5.4c-0.6-1.4-1.3-2.7-2.6-3.9c-1.2-1.2-2.5-2-3.9-2.6
		c-1.4-0.5-3-0.9-5.4-1C29,0,28.2,0,22.2,0S15.4,0,13,0.1c-2.4,0.1-4,0.5-5.4,1C6.2,1.7,5,2.5,3.7,3.7C2.5,5,1.7,6.2,1.2,7.7
		c-0.5,1.4-0.9,3-1,5.4C0,15.4,0,16.2,0,22.2s0,6.8,0.1,9.2c0.1,2.4,0.5,4,1,5.4c0.6,1.4,1.3,2.7,2.6,3.9c1.2,1.2,2.5,2,3.9,2.6
		c1.4,0.5,3,0.9,5.4,1c2.4,0.1,3.1,0.1,9.2,0.1s6.8,0,9.2-0.1c2.4-0.1,4-0.5,5.4-1c1.4-0.6,2.7-1.3,3.9-2.6c1.2-1.2,2-2.5,2.6-3.9
		c0.5-1.4,0.9-3,1-5.4s0.1-3.1,0.1-9.2S44.4,15.4,44.3,13z M40.3,31.2c-0.1,2.2-0.5,3.3-0.8,4.1c-0.4,1-0.9,1.8-1.7,2.5
		c-0.8,0.8-1.5,1.3-2.5,1.7c-0.8,0.3-2,0.7-4.1,0.8c-2.3,0.1-3,0.1-9,0.1c-5.9,0-6.6,0-9-0.1c-2.2-0.1-3.3-0.5-4.1-0.8
		c-1-0.4-1.8-0.9-2.5-1.7c-0.8-0.8-1.3-1.5-1.7-2.5c-0.3-0.8-0.7-2-0.8-4.1c-0.1-2.3-0.1-3-0.1-9c0-5.9,0-6.6,0.1-9
		c0.1-2.2,0.5-3.3,0.8-4.1c0.4-1,0.9-1.8,1.7-2.5c0.8-0.8,1.5-1.3,2.5-1.7c0.8-0.3,2-0.7,4.1-0.8c2.3-0.1,3-0.1,9-0.1
		c5.9,0,6.6,0,9,0.1c2.2,0.1,3.3,0.5,4.1,0.8c1,0.4,1.8,0.9,2.5,1.7c0.8,0.8,1.3,1.5,1.7,2.5c0.3,0.8,0.7,2,0.8,4.1
		c0.1,2.3,0.1,3,0.1,9C40.4,28.1,40.4,28.8,40.3,31.2z"/>
</g>
</svg>
