<?xml version="1.0" encoding="utf-8"?>
<!-- Generator: Adobe Illustrator 19.0.0, SVG Export Plug-In . SVG Version: 6.00 Build 0)  -->
<svg version="1.1" id="Capa_1" xmlns="http://www.w3.org/2000/svg" xmlns:xlink="http://www.w3.org/1999/xlink" x="0px" y="0px"
	 viewBox="0 0 640 290.1" style="enable-background:new 0 0 640 290.1;" xml:space="preserve">
<style type="text/css">
	.st0{fill:#FFFFFF;}
</style>
<g id="XMLID_1_">
	<path id="XMLID_211_" class="st0" d="M72.5,232.3c-2.4-1.1-2.8-3-2.7-5.1c1.1-17.9-15.5-29.4-31.9-22.1
		c-12.2,5.5-19.4,21.6-17.5,38.8c1.8,15.5,10.5,25.5,24.4,28.4c9.1,1.9,17-0.8,24.2-6c17.1-12.4,26-38.3,20.2-58.6
		c-3.7-12.8-11.7-21.2-25-24.3c-5.2-1.2-10.4-2.2-14.9-5.3c-6.5-4.6-7.7-10.8-3.4-17.5c8.6-13.1,33.9-21.7,48.9-16.7
		c5.3,1.8,7.5,5.9,9.1,10.6c1.8,5.4,1.3,11.4,4.3,16.5c1,1.6,0,2.8-1.2,3.6c-1.9,1.2-3.2-0.2-3.9-1.6c-1.3-2.6-1.2-5.5-1.4-8.4
		c-1.2-16.3-7.1-20.5-22.7-16.4c-7.9,2.1-14.8,6-19.4,13c-4.6,7-3.6,10,4.2,12.6c2.7,0.9,5.5,1.6,8.2,2.6
		c24.5,9.3,35.6,29.1,31,55.5c-5.9,34.6-41.1,55.3-74.1,43.5c-18.5-6.6-26.8-21.9-23.2-42.4c4.2-23.5,21.9-37.3,44.7-34.8
		c11.4,1.2,19.8,8.5,21.9,19.8C73.3,222.5,76.7,227.4,72.5,232.3z"/>
	<path id="XMLID_12_" class="st0" d="M177.5,200.8c-7.1-0.9-6,4.9-6.8,8.5c-1.5,6.8-2.5,13.6-4.8,20.2c-1.7,4.9-4,9.4-7.7,13
		c-4.4,4.3-9.7,6.4-15.6,4.4c-6.3-2.1-8.1-7.5-8-13.7c0-0.7,0-1.4,0-3.2c-4.2,4.9-7.6,9.1-11.2,13.1c-2.7,3-5.7,5.4-10.1,2.7
		c-3.9-2.4-4.6-5.8-3.6-10c1.7-7.1,3.5-14.3,4.8-21.5c0.8-4.7,2.5-9.5-0.7-14.2c-1.7-2.5,0.2-3.2,2.3-3.3c4.5-0.2,7.3,2.1,8.9,6.1
		c2.2,5.3,1.8,10.9,0.7,16.3c-1.4,7.6-3.3,15-5,22.7c1.6,0.6,1.9-1,2.5-1.8c6.6-9.7,11.7-20.1,15.1-31.3c0.8-2.7,2.5-5.6,0.1-8.7
		c-1.1-1.3-0.6-1.7,3.7-1.8c4.6,1,8.3,3,8.5,8.5c0.4,7.8-2.4,15.2-2.8,23c-0.1,2-0.6,4.1-0.3,6.1c0.3,2.2-0.6,5.6,2.6,6.1
		c2.9,0.4,4.6-2.1,5.7-4.7c3-6.5,4.5-13.5,5.9-20.4c0.7-3.4,1.6-6.7,2.4-10c0.8-5.4,1.6-10.7,8.7-11c2.2-0.4,4.1,0.2,5.2,2.2
		C178.7,199.1,179.3,201.1,177.5,200.8z"/>
	<path id="XMLID_23_" class="st0" d="M633.8,200c-2.5-0.5-2.3,2.5-2.8,4c-3.5,10.1-8.1,19.6-14.6,28.1c-1.6,2.2-3.3,5.9-6.3,4.5
		c-2.1-1,0.1-4.5,0.6-6.8c2-9.4,5-18.6,5.1-28.3c0.1-4.9-3.3-5.6-7-5.5c-3.6,0.1-5.9,1.2-3.7,5.5c0.5,0.9,0,2.4-0.3,3.6
		c-3.4,13.8-12.2,24.5-20.1,36.5c-1.3-3.4,0.1-5.4,0.6-7.4c1.6-7.2,4-14.1,5-21.5c0.5-3.8,1.6-9.4-1.1-12.7c-2-2.3-5.2-3.3-8.1-3.7
		c-2-0.3-6.5-1.2-8.2,0.3c-1.7,1.5-3.1,3.7,0.2,4.4c6.5,1.4,5.8,5.6,4.2,9.8c-3.5,9.3-8.2,18.1-13.7,26.5c-0.6,1-1.4,2.1-3.1,1.1
		c-0.8-1.9-0.1-3.9,0.2-5.8c1.4-9.1,5.1-17.5,8.3-26.1c1.4-3.8,3.4-7.9-0.4-11.7c-10.4-7.1-14.2,4.9-21.8,7.4c0.8-3.1,1.7-6,2.1-8.9
		c0.5-3.5,0.6-7.3-3.9-8.4c-4.3-1.1-7.8,0.7-9.4,4.8c-1.8,4.8-2.2,10.6,1.3,14c4.4,4.3,3.5,7.7,1.5,12.1c-1,2.2-1.4,4.7-2.4,6.9
		c-3.5,7.9-7.5,15.6-16.2,19c-6.8,2.7-12.8-0.1-13.1-6.2c-0.6-13,4.5-23.8,14.2-32.4c1.3-1.2,2.8-2,4.5-1.3c2,0.8,2,2.9,2.2,4.7
		c0.6,7.6-4.9,15.3-12.7,18.3c-1.3,0.5-3.9,0-3.2,2.6c0.7,2.6,2.9,1.8,4.5,1.1c8.1-3.5,12.9-9.9,14.8-18.2c2-8.7-2.6-13.8-11.6-13.3
		c-2.9,0.1-5.6,1.1-8,2.6c-8.5,5.1-13.9,12.7-15.9,22.2c-1.2,5.5-3.7,9.8-7.3,13.8c-2.7,3-5.3,7.6-9.5,6.6
		c-4.9-1.1-5.2-6.7-6.7-10.9c-1.8-4.9-1.2-7.4,5-8.1c9-1.1,16.7-5.2,19.7-14.8c3-9.3-1-14.4-10.4-12.8c-5.2,0.8-9.5,3.7-13.8,6.6
		c-1.8,1.2-1.3-0.7-1-1.8c0.4-1.7,0.9-3.4,1.3-5.1c0.9-3.4,1.7-6.8,2.6-10.2c1.6-6.7,2.9-13.5,4.6-20.2c1.1-4.2-0.9-6.1-4.4-6
		c-3.5,0.1-9.1-1.4-9.4,3.7c-0.3,4.7-1.5,9.3-2.1,14c-1.5,11.2-5.1,21.9-6.6,33.2c-0.9,4-1.7,7.9-2.7,11.9c-2,7.8-6.1,14.4-12,19.9
		c-0.1-10.2,4.1-19.1,6.4-28.5c0.6-2.6,2.7-5.6-1.7-6.9c-4-1.1-10.1,1.6-10.9,4.7c-2.4,9.6-7,18.2-12.2,26.5c-1.1,1.7-2,4.8-4.6,4
		c-2.3-0.7-2.2-3.7-2.4-5.9c-0.6-8.9,1.7-17.3,4.6-25.6c5.1-9.8,12.9-10.8,23.2-5.6c-6-8.7-16.4-9.3-26.7-2.9
		c-10.1,9.7-11.9,22.3-12.4,35.3c-0.2,4.4,0.8,8.6,5.9,10.3c5.4,1.9,9.6-0.1,13.2-3.8c1.3-1.4,1.7-3.6,4-4.4
		c0.1,4.2,1.7,7.5,5.8,8.4c8.2,1.7,12.4-4.5,17.3-10c0.4,2.7,0,5,1.2,7c1.3,2.2,2.8,4.3,5.7,3.8c3.2-0.6,1.4-3.3,1.6-5
		c0.7-6,1.8-11.9,4.6-18.5c1.3,4.9,2.2,8.7,3.4,12.3c1.5,4.4,2.5,9.8,7.9,10.8c4.9,0.9,8.1-3.2,11.2-6.4c2-2.1,3.9-4.5,6-7
		c4.1,12,13,16.9,24.5,13.8c6.6-1.8,11.4-6.3,15.2-11.7c5-7,8.7-14.8,11.4-23c1.4-4.1,3.8-6.8,8.5-7.8c0.3,3.2-1.3,5.7-2.1,8.3
		c-2.6,7.8-4.9,15.6-4.3,23.9c0.3,4.7,1.5,8.8,6.5,10.7c5,1.9,8.8-0.1,12.1-3.4c2.4-2.4,4.5-5.1,7.4-8.5c-2,6.4-0.2,10.2,5.6,11.2
		c3.9,0.7,7.2-1.1,9.6-4.3c2.5-3.4,5.1-6.8,7.6-10.2c-2.4,15.6-6.2,30.6-14.5,44c-0.7,1.2-1.7,2.3-2.7,3.3c-3.9,3.7-9.3,2.7-11.7-2
		c-3.2-6.3,0.7-20.7,6.6-24.7c1.4-0.9,2.9-1.9,4.5-0.9c1.5,1,1.6,2.7,1.3,4.4c-0.4,2.2-0.7,4.4-1.3,7.9c4.2-5.5,4.6-12.2,1.4-14.2
		c-4.7-3-8.1,0.2-11,3.5c-4.6,5.4-5.9,12-5.8,18.9c0.1,5.2,1.2,10,6.5,12.2c5.8,2.4,11.6,2.2,16.6-2.3c3.4-3,5.9-6.7,8.2-10.6
		c4.9-8.3,8.1-17.4,11.2-26.4c0.5-1.5,0.2-4.1,2.9-4c6.7,0.3,10.1-4.6,13.7-9c6.4-8.1,9.9-17.8,13.2-27.5
		C635.8,203.2,636.5,200.6,633.8,200z M467.4,217.3c0.7-2.6,2-5,3.6-7.2c2.9-4,9.6-11.5,15.3-8.3c4.4,2.5,1.8,8.5-0.8,11.3
		c-4.1,4.5-9.6,6.8-15.6,7.4C467.3,220.9,466.5,220.4,467.4,217.3z"/>
	<path id="XMLID_17_" class="st0" d="M414.8,167.7c-0.7,3.6-2.2,7.1-3.9,10c-2.3,4-5.3,7.5-8.5,10.8c-2.8,2.8-5.8,5.1-9,7.5
		c-1.4,1-1.7,2.2,0,3.1c3.4,1.8,6.8,2.3,9.4,5.5c2.5,3.1,3.1,7.1,3,11c-0.1,7.8-2.6,14.9-6.6,21.4c-6.5,10.6-15.1,20-25.6,26.8
		c-10.1,6.6-24.7,13.3-37,11.7c-5-0.7-9-3.2-11.8-7.4c-4.5-6.7-4.2-16.4,1.7-24.1c3.4-4.4,5-9,5.8-14.4c1.1-7.5,3.6-14.6,6.5-21.6
		c0.3-0.8,0.6-1.7,0.9-2.5c2.4-8.6,4.9-17.1,7-25.8c1.4-6,5.7-2.9,9-0.9c2,0.9,2.8,2.8,3.5,4.7c1,3.1,0.4,6-0.7,9
		c-3.7,11-7.4,22-11.2,33.3c0.8,0.1,1.4,0.3,1.9,0.2c1.8-0.4,3.9-3.2,5.2-0.8c1.4,2.8-2.1,3.4-3.8,4.5c-6.2,3.9-10.1,14.9-6.9,21.6
		c1.8,3.5-0.2,3.3-2.3,3.4c-4.7,0.2-8.6-2.8-11-8.6c-5,5.9-6,11.6-3.1,16.6c3.1,5.2,9.9,8.4,16.3,7.3c2.8-0.5,5.7-1,8.2-2.3
		c20.6-10.4,35.1-26.1,41.3-48.8c0.3-1.2,0.5-2.4,0.6-3.6c1-11.8-4-15.4-15-10.7c-0.7,0.3-1.5,0.5-2.2,0.8c-3,2.1-5.9,4.2-9,6.2
		c-0.9,0.6-2.1,1.7-3.2,0.4c-1.3-1.5-0.2-2.8,0.9-3.7c2.9-2.2,6-4.2,9-6.2c0.7-0.5,1.5-1,2.2-1.5l11.1-8.8c0.4-0.3,1.7-0.7,2.1-1
		c5.1-6.8,13.4-13,13.4-22v-6.2c0-0.7-1.1-1.5-1.1-2.2c-2-4.1-4.9-7.8-9.3-9.8c-9.4-1.9-17.9,1.4-25.8,5.6
		c-11.5,6.1-22.4,14.4-30.7,24.5c-4.9,5.9-19.1,25.3-8.7,31.5c1.6,0.9,3,3.7,1,5.2c-1.9,1.5-3.6-0.6-4.9-2.2
		c-7.9-9.5-0.5-23.1,5.3-31.6c7.6-11,16.6-20.4,28-27.5c11.3-7.1,24.6-11.9,38.1-10.5c7.1,0.7,15.3,2.8,18.8,10
		C415.5,159.4,415.6,163.6,414.8,167.7z"/>
	<path id="XMLID_20_" class="st0" d="M309.1,180.3c-2.3-1.2-4.9-1.9-7.5-2.4c-9.8-1.8-19.9-1.4-29.9-1c1.2-5.5,2.1-12.2-2.1-16
		c-2.5-2.3-6.2-2.8-9.6-2.1c-4.3,0.9-9.2,3.2-11.5,7.1c-0.7,1.1-4,12.8-1.2,12.8c-5,0-9.9,0-14.9-0.1c0.8,1.8,2.9,2.6,4.9,2.6
		c2,0,3.9-0.5,5.9-0.6c5.3-0.1,10.4,3.9,11.5,9.1c0.6,2.7,0.2,5.6-0.3,8.3c-1.2,7.5-2.4,15-4.9,22.1c-2.5,7.1-6.4,13.9-12.3,18.7
		c-4,3.3-10.1,5.5-14.3,2.4c-3.5-2.6-4-7.6-3.5-11.9c0.7-5.7,2.6-11.1,5.5-16c2-3.3,7.3-11.9,11.7-12c2.4,0,3.5,2.9,3.5,5.3
		c0.1,7.9-5.6,15.6-13.1,17.9c-1.2,0.4-2.7,0.8-2.9,2.1c-0.2,1.1,0.8,2.1,1.9,2.3c1.1,0.2,2.2-0.2,3.2-0.7
		c7.6-3.5,13.3-10.9,14.8-19.1c0.5-2.9,0.5-6-1.1-8.4c-2.7-4.2-8.9-4.6-13.8-3.2c-7.6,2.2-14.2,7.8-17.6,15
		c-2.3,4.9-3.2,10.3-4.8,15.4c-1.6,5.1-4.2,10.3-8.9,13.1c-4.6,2.8-11.6,2.1-14.3-2.6c-1.4-2.4-1.4-5.3-1.1-8
		c1.1-10.5,6.3-20.5,14.3-27.4c0.9-0.8,2-1.6,3.2-1.6c2.4,0.1,3.5,3.1,3.5,5.5c-0.1,8-5.8,15.6-13.4,17.9c-1,0.3-2.1,0.6-2.5,1.5
		c-0.5,1.1,0.6,2.4,1.8,2.7c1.2,0.2,2.4-0.3,3.5-0.8c6.9-3.6,12.2-10.2,14.2-17.8c0.5-1.9,0.8-3.8,0.4-5.7c-0.9-4.8-6-8.1-10.9-8.1
		c-4.9,0-9.5,2.6-13.2,5.8c-7.2,6.2-12.1,15.2-13.4,24.6c-0.6,4.2-0.4,8.6,1.6,12.3c2.1,3.9,6.1,6.6,10.3,7.9
		c8.4,2.5,18.1-0.5,23.6-7.3c0.3-0.4,0.6-0.8,1.1-0.9c1-0.3,1.8,0.6,2.5,1.3c4.9,5.5,12.6,8.3,19.9,7.4c7.3-1,14-5.7,17.3-12.3
		c0.6,5.3,3.3,11.4,8.6,12.1c4.1,0.6,7.8-2.4,10.5-5.6c7.7-9.1,11.5-20.8,15-32.1c0.5-1.8,0.3-4.6-1.5-4.4c-1.1,0.1-1.7,1.4-2,2.5
		c-3,10.3-7.2,20.2-12.6,29.4c-1.5,2.5-3.7,5.3-6.6,4.7c3.3-19.7,7.7-39.2,13.3-58.4c0.2-0.7,0.4-1.5,1-2c0.6-0.6,1.5-0.8,2.4-0.9
		c10.1-1.7,20.6-1.2,30.5,1.5c3.2,0.9,7.1,2.9,6.8,6.2c-0.2,2.5-2.7,5.3-0.9,7c4.4-1.1,5.5-7.5,2.9-11.3
		C312.3,182.4,310.8,181.2,309.1,180.3z M257.1,183.4c-1,1.1-0.7,5.3-3.6,1.4c0-0.1,0-0.3-0.1-0.4c-0.5-1.3-2.7-2.7,0.2-3.6
		C255.3,180.3,257.9,179.9,257.1,183.4z M259.7,169.1c-1.4,2.9,1.4,7.8-4.5,8.6c-4.2,0.5-5.7-0.6-5-4c0.2-3.2,0.8-5.5,2.4-7.5
		c1.6-2,3.7-3.7,6.2-2.8C261.8,164.3,260.5,167.5,259.7,169.1z"/>
	<g id="XMLID_2_">
		<path id="XMLID_941_" class="st0" d="M333.6,35.6c-2.3,0.6-4.7,0.9-6.5,1.2c-7.7,1.5-15.5,2-23.3,2.4c-0.9,0-1.9,0.1-2.8-0.2
			c-3.1-0.9-3.4-5.2-2.8-7.8c0.6-2.7,2.7-4.7,5.1-6.1c2.9-1.7,6.4-2,9.1-4c2.3-1.7,3.6-4.5,3.7-7.4c0-1.9-0.4-3.8-1.2-5.6
			c-0.3-0.7-3.2-4.6-1.8-4.1c6.6,2,12.7,5.6,17.9,10.2c3.1,2.7,6.3,5.7,8,9.5C341.7,29.4,339.4,34,333.6,35.6z"/>
		<path id="XMLID_40_" class="st0" d="M361.2,55.9c-0.1-1.9-0.9-3.7-2-5.3c-2-2.9-5.6-6.2-8.9-3.3c-6.6,5.8-15.9,7.6-24.3,9
			c-10.7,1.8-21.5,2.4-32.2,3.7c-3.3,0.4-6.6,0.5-9.7,1.6c-3.8,1.3-7,3.9-7.7,8c-0.4,2.5,0.1,5.6,1.7,7.7c1,1.2,2.5,1.9,4,2.2
			c8.1,2,16.2,1.9,24.4,0.8c9-1.3,18-3.2,26.7-6c9.3-2.9,21.8-6.3,27.1-15.3C361,58,361.2,57,361.2,55.9z M324,60.8
			C324,60.8,324,60.8,324,60.8C324,60.8,324,60.8,324,60.8C324,60.8,324,60.8,324,60.8C324,60.8,324,60.8,324,60.8
			C324,60.8,324,60.8,324,60.8C324,60.8,324,60.8,324,60.8L324,60.8C324,60.8,324,60.8,324,60.8z"/>
		<path id="XMLID_35_" class="st0" d="M351.4,37.8c-0.9-2.7-2.9-5.2-5.5-4.8c-1.1,0.2-2.7,1.6-3.7,2.1c-1.3,0.7-2.6,1.2-4,1.7
			c-5.5,2.1-11.3,3-17.1,3.5c-5.1,0.4-10.1,0.9-15.2,1.4c-4.5,0.4-9,0.5-13.2,2.4c-1.3,0.6-2.4,1.4-3.5,2.3c-3,2.7-3.6,6.5-1.7,10.1
			c0.3,0.6,0.7,0.8,1.3,0.4c1.4-0.8,3-1.3,4.6-1.7c6.4-1.7,13.1-2.2,19.7-2.8c6.5-0.6,13.1-1,19.6-1.9c1.8-0.2,3.6-0.4,5.4-0.9
			C344,48.1,354.1,46.3,351.4,37.8z M339.4,47.7C339.4,47.7,339.4,47.7,339.4,47.7C339.4,47.7,339.4,47.7,339.4,47.7
			C339.4,47.7,339.4,47.7,339.4,47.7L339.4,47.7L339.4,47.7C339.4,47.7,339.4,47.7,339.4,47.7C339.4,47.7,339.4,47.7,339.4,47.7
			C339.4,47.7,339.4,47.7,339.4,47.7C339.4,47.7,339.4,47.7,339.4,47.7C339.4,47.7,339.4,47.7,339.4,47.7
			C339.4,47.7,339.4,47.7,339.4,47.7C339.4,47.7,339.4,47.7,339.4,47.7C339.4,47.7,339.4,47.7,339.4,47.7z M336.2,49.2
			C336.2,49.2,336.2,49.2,336.2,49.2C336.2,49.2,336.2,49.2,336.2,49.2C336.2,49.3,336.2,49.2,336.2,49.2z"/>
		<path id="XMLID_898_" class="st0" d="M361.4,71.7c-2.2,6.6-11.2,7.5-16.9,8.8c-9.9,2.1-20.1,2.7-30.2,2.5c-0.5,0-1-0.1-1.5-0.1
			c3.8-0.5,7.5-1.1,11.2-2.1c11.8-2.9,24.4-7.5,34-15.2c1-0.8,2.6-2.9,3.9-2.9c0.9,0,0.1,6.4,0,7C361.8,70.4,361.6,71.1,361.4,71.7z
			"/>
		<path id="XMLID_46_" class="st0" d="M364.1,76.6c-0.2-0.2-0.5-0.1-0.6,0c-16.2,9.4-36.7,10.7-54.9,9.6
			c-10.3-0.6-21.1-1.9-30.9-5.4c-0.3-0.1-0.6-0.2-0.9-0.3c-0.3,0.1-0.5,0.2-0.2,0.5c1.6,2.6,3,5.4,4.3,8.1c2.5,5,4.5,10.3,5.8,15.8
			c0.7,2.9,1.2,5.7,1.5,8.7c0.2,1.5-0.4,5.8,1.1,6.6c6.5,3.8,14.4,4.2,21.7,4.6c6.9,0.3,13.9,0.1,20.8-0.7
			c6.4-0.7,13.5-1.4,19.3-4.2c3-1.4,2.1-8.1,2.5-10.8c0.8-6.2,2.2-12.4,4.3-18.3c1-2.9,2.2-5.6,3.6-8.3
			C361.8,82,364.6,77.1,364.1,76.6z M297.8,115.5c-0.8-9.1-2.5-18.1-4.9-26.9C297.9,97,299.8,105.9,297.8,115.5z M308.9,116.8
			c-0.4-4.6-1-9.1-1.9-13.6c-0.8-4.5-1.9-8.9-3.1-13.4C309,98.2,310.9,107.1,308.9,116.8z M321.1,117.2c-2-8.8-1.8-17.6-0.6-26.4
			C322.2,99.5,322.9,108.3,321.1,117.2z M334.2,116.8c-2-9.7,0-18.7,5-27.1C336.7,98.6,334.9,107.6,334.2,116.8z M348.3,89.9
			c-1.7,6.2-3.1,12.6-3.9,19c-0.3,2.2-0.5,4.4-0.8,6.6c-1.8-9.2-0.3-17.9,4.4-26.1C348.5,89.4,348.4,89.6,348.3,89.9z"/>
	</g>
</g>
</svg>
