<?xml version="1.0" encoding="utf-8"?>
<!-- Generator: Adobe Illustrator 19.0.0, SVG Export Plug-In . SVG Version: 6.00 Build 0)  -->
<svg version="1.1" id="Capa_1" xmlns="http://www.w3.org/2000/svg" xmlns:xlink="http://www.w3.org/1999/xlink" x="0px" y="0px"
	 viewBox="0 0 30.9 37" style="enable-background:new 0 0 30.9 37;" xml:space="preserve">
<style type="text/css">
	.st0{fill:#3A3A3A;}
</style>
<g id="XMLID_22_">
	<path id="XMLID_2_" class="st0" d="M1.8,36.8c-0.2,0-0.3,0-0.5-0.1c-0.5-0.2-0.9-0.7-0.9-1.3V1.6c0-0.8,0.6-1.4,1.4-1.4H29
		c0.8,0,1.4,0.6,1.4,1.4v33.8c0,0.6-0.4,1.1-0.9,1.3c-0.5,0.2-1.1,0.1-1.5-0.4L15.7,22.3L2.8,36.4C2.5,36.7,2.2,36.8,1.8,36.8z
		 M2.8,2.7v30L15,19.4l0.7,0c0.4,0,0.8,0.2,1,0.5L28,32.6V2.7H2.8z"/>
</g>
</svg>
